# xmcd CD database file
#
# Track frame offsets:
#	150
#	18317
#	38980
#	57898
#	77466
#	91865
#	112204
#	125495
#	146094
#	158676
#	182777
#	188441
#	209628
#	226910
#
# Disc length: 3039 seconds
#
# Revision: 0
# Processed by: cddbd v1.4PL0 Copyright (c) Steve Scherf et al.
# Submitted via: Feurio! 1.66 - http://www.feurio.com
#
DISCID=b70bdd0e
DTITLE=Van Morrison - Hoochie Coochie Van (Perugia, 7/15/03) - disc 2
DYEAR=2003
DGENRE=blues
TTITLE0=Real Real Gone
TTITLE1=Early in the Morning
TTITLE2=Talk Is Cheap
TTITLE3=Don't Start Crying Now
TTITLE4=Times Gettin Tougher Than Tough
TTITLE5=I'm Your Hoochie Coochie Man
TTITLE6=Baby What You Want Me To Do
TTITLE7=Brown Eyed Girl
TTITLE8=When You're Smiling
TTITLE9=Gloria
TTITLE10=Intro
TTITLE11=Van Morrison and Ray Charles - Crazy Love
TTITLE12=Steal My Heart Away
TTITLE13=Outro
EXTD=A Soft Warewolf Production - NEVER FOR SALE!
EXTT0=
EXTT1=
EXTT2=
EXTT3=
EXTT4=
EXTT5=
EXTT6=
EXTT7=
EXTT8=
EXTT9=
EXTT10=
EXTT11=
EXTT12=
EXTT13=
PLAYORDER=
